# xmcd
#
# Track frame offsets:
#	150
#	20012
#	39752
#	60240
#	80517
#	99721
#	118895
#	139209
#	157371
#	175155
#	203616
#	226595
# Disc length: 3025 seconds
# Revision: 1
# Processed by: cddbd v1.5.2PL0 Copyright (c) Steve Scherf et al.
#
# Submitted via: libkcddb 0.31
#
DISCID=980bcf0c
DTITLE=ต่าย อรทัย - ส่งใจมาใกล้ชิด
DYEAR=2006
DGENRE=Country
TTITLE0=ส่งใจมาใกล้ชิด
TTITLE1=อย่าคิดหยังหลาย
TTITLE2=บอกใจยังไงด
TTITLE3=นางแบบงานบุญ
TTITLE4=หน้าจอรอสาย
TTITLE5=คือฮักหรือบ
TTITLE6=ฮักมาแต่ชาติก่อน
TTITLE7=เพื่อนใจสมัยเรียน
TTITLE8=ฝ้ายขาวที่ผูกแขน
TTITLE9=คำสัญญาที่กาฬสินธ
TTITLE10=Virus Sony
TTITLE11=Virus
EXTD=Thai
EXTT0=
EXTT1=
EXTT2=
EXTT3=
EXTT4=
EXTT5=
EXTT6=
EXTT7=
EXTT8=
EXTT9=
EXTT10=
EXTT11=
PLAYORDER=
